<svg width="16px" height="16px" version="1.1" viewBox="0 0 16 16" xmlns="http://www.w3.org/2000/svg">
 <path d="m1 0v2c-0.554 0-1 0.446-1 1s0.446 1 1 1v3c-0.554 0-1 0.446-1 1s0.446 1 1 1v3c-0.554 0-1 0.446-1 1s0.446 1 1 1v2h13c1.108 0 2-0.892 2-2v-12c0-1.108-0.892-2-2-2h-13zm3 1c1.108 0 2 0.892 2 2s-0.892 2-2 2c-0.74277 0-1.3874-0.40192-1.7324-1h1.7324c0.554 0 1-0.446 1-1s-0.446-1-1-1h-1.7324c0.34498-0.59808 0.98965-1 1.7324-1zm4 0h1v0.26562c0.29376-0.16912 0.63536-0.26562 1-0.26562 0.59814 0 1.1341 0.26027 1.5 0.67383 0.3659-0.41356 0.90186-0.67383 1.5-0.67383 1.108 0 2 0.89201 2 2v2h-1v-2c0-0.554-0.44601-1-1-1s-1 0.446-1 1v2h-1v-2c0-0.554-0.44601-1-1-1-0.554 0-1 0.446-1 1v2h-1v-4zm-4 5c1.108 0 2 0.892 2 2s-0.892 2-2 2c-0.74277 0-1.3874-0.40192-1.7324-1h1.7324c0.554 0 1-0.446 1-1s-0.446-1-1-1h-1.7324c0.34498-0.59808 0.98965-1 1.7324-1zm9 0c1.108 0 2 0.89201 2 2v2h-1v-0.26562c-0.29376 0.16912-0.63536 0.26562-1 0.26562-1.108 0-2-0.89201-2-2s0.892-2 2-2zm0 1c-0.554 0-1 0.446-1 1s0.446 1 1 1c0.554 0 1-0.446 1-1s-0.446-1-1-1zm-9 4c1.108 0 2 0.892 2 2s-0.892 2-2 2c-0.74277 0-1.3874-0.40192-1.7324-1h1.7324c0.554 0 1-0.446 1-1s-0.446-1-1-1h-1.7324c0.34498-0.59808 0.98965-1 1.7324-1zm7 0h1v0.26562c0.29376-0.16912 0.63536-0.26562 1-0.26562 1.108 0 2 0.89201 2 2v2h-1v-2c0-0.55399-0.44601-1-1-1-0.554 0-1 0.44601-1 1v2h-1v-4z"/>
</svg>
